P3
16
16
15
0 0 0 0 0 0 0 0 0 15 0 15 0 0 0 0 0 0 0 0 0 15 0 15 0 0 0 0 0 0 0 0 0 15 0 15 0 0 0 0 0 0 0 0 0 15 0 15
0 0 0 0 15 7 0 0 0 0 0 0 0 0 0 0 0 0 0 0 0 15 0 15 0 0 0 0 0 0 0 0 0 15 0 15 0 0 0 0 0 0 0 0 0 15 0 15
0 0 0 0 0 0 0 15 7 0 0 0 0 0 0 0 0 0 0 0 0 15 0 15 0 0 0 0 0 0 0 0 0 15 0 15 0 0 0 0 0 0 0 0 0 15 0 15
15 0 15 0 0 0 0 0 0 0 0 0 0 0 0 0 0 0 0 0 0 15 0 15 0 0 0 0 0 0 0 0 0 15 0 15 0 0 0 0 0 0 0 0 0 15 0 15
0 0 0 0 0 0 0 0 0 15 0 15 0 0 0 0 0 0 0 0 0 15 0 15 0 0 0 0 0 0 0 0 0 15 0 15 0 0 0 0 0 0 0 0 0 15 0 15
0 0 0 0 15 7 0 0 0 0 0 0 0 0 0 0 0 0 0 0 0 15 0 15 0 0 0 0 0 0 0 0 0 15 0 15 0 0 0 0 0 0 0 0 0 15 0 15
0 0 0 0 0 0 0 15 7 0 0 0 0 0 0 0 0 0 0 0 0 15 0 15 0 0 0 0 0 0 0 0 0 15 0 15 0 0 0 0 0 0 0 0 0 15 0 15
15 0 15 0 0 0 0 0 0 0 0 0 0 0 0 0 0 0 0 0 0 15 0 15 0 0 0 0 0 0 0 0 0 15 0 15 0 0 0 0 0 0 0 0 0 15 0 15
0 0 0 0 0 0 0 0 0 15 0 15 0 0 0 0 0 0 0 0 0 15 0 15 0 0 0 0 0 0 0 0 0 15 0 15 0 0 0 0 0 0 0 0 0 15 0 15
0 0 0 0 15 7 0 0 0 0 0 0 0 0 0 0 0 0 0 0 0 15 0 15 0 0 0 0 0 0 0 0 0 15 0 15 0 0 0 0 0 0 0 0 0 15 0 15
0 0 0 0 0 0 0 15 7 0 0 0 0 0 0 0 0 0 0 0 0 15 0 15 0 0 0 0 0 0 0 0 0 15 0 15 0 0 0 0 0 0 0 0 0 15 0 15
15 0 15 0 0 0 0 0 0 0 0 0 0 0 0 0 0 0 0 0 0 15 0 15 0 0 0 0 0 0 0 0 0 15 0 15 0 0 0 0 0 0 0 0 0 15 0 15
0 0 0 0 0 0 0 0 0 15 0 15 0 0 0 0 0 0 0 0 0 15 0 15 0 0 0 0 0 0 0 0 0 15 0 15 0 0 0 0 0 0 0 0 0 15 0 15
0 0 0 0 15 7 0 0 0 0 0 0 0 0 0 0 0 0 0 0 0 15 0 15 0 0 0 0 0 0 0 0 0 15 0 15 0 0 0 0 0 0 0 0 0 15 0 15
0 0 0 0 0 0 0 15 7 0 0 0 0 0 0 0 0 0 0 0 0 15 0 15 0 0 0 0 0 0 0 0 0 15 0 15 0 0 0 0 0 0 0 0 0 15 0 15
15 0 15 0 0 0 0 0 0 0 0 0 0 0 0 0 0 0 0 0 0 15 0 15 0 0 0 0 0 0 0 0 0 15 0 15 0 0 0 0 0 0 0 0 0 15 0 15
